<?xml version="1.0" encoding="UTF-8" standalone="no"?>
<svg
   xmlns:dc="http://purl.org/dc/elements/1.1/"
   xmlns:cc="http://creativecommons.org/ns#"
   xmlns:rdf="http://www.w3.org/1999/02/22-rdf-syntax-ns#"
   xmlns:svg="http://www.w3.org/2000/svg"
   xmlns="http://www.w3.org/2000/svg"
   version="1.1"
   width="640"
   height="750">
  <g>
    <path
       d="M 28.940773,8.7598669 C 108.47789,6.0761401 176.05895,30.441633 212.84953,69.677134 c 7.46164,7.957498 -2.32675,10.008935 -11.10188,10.943801 -19.23407,0.512669 -15.69631,15.873864 -15.69631,15.873864 0,0 1.61165,346.125751 1.6151,504.088341 0.002,84.4623 69.80266,49.40982 56.21452,59.96217 -125.49174,97.45503 -242.97167344,56.83912 -242.97167344,56.83912 0,0 69.31498344,-0.85307 120.21263344,-54.74106 22.81976,-24.16044 29.86201,-77.08211 31.42804,-139.80146 3.36761,-134.87286 5.43607,-121.62182 -1.76666,-409.16126 C 149.62588,67.475105 98.679998,42.05557 89.419066,37.301069 68.558519,26.591395 20.357979,9.0494676 28.940773,8.7598669 z" />
    <path
       d="m 8.4045567,328.25499 c 0,0 10.5000553,-71.92832 71.8296723,-132.41646 C 158.25004,118.89312 359.76997,69.623414 380.04502,48.431536 400.32009,27.239657 324.66642,-2.0080093 345.69172,1.5860951 528.32488,32.805748 572.42365,175.22653 572.42365,175.22653 489.17258,109.56857 476.44633,91.969234 360.05765,110.89212 78.119682,168.70347 8.4045567,328.25499 8.4045567,328.25499 z" />
    <path
       d="m 156.18004,406.72801 c 0,0 -28.00603,-9.27081 -24.72813,-49.74118 -49.03805,50.20314 -37.476352,146.15779 -37.476352,146.15779 0,0 12.855062,-26.57534 23.141322,-39.65343 25.61775,-32.57076 39.16248,-35.17121 39.16248,-35.17121 z" />
    <path
       d="m 241.12145,144.30355 c 0,0 3.94226,190.57807 4.00873,283.88836 0.0661,92.80528 -49.96847,202.3723 -49.96847,202.3723 0,0 44.18218,-74.99362 91.19245,-78.07576 -6.22114,-27.00464 -5.48846,-59.36397 -6.24606,-151.77919 l 0,-269.82973 z" />
    <path
       d="m 313.83682,144.62083 c 0,0 7.33233,169.1268 3.74764,253.59001 -5.11546,120.53114 -19.22072,137.76812 -42.16903,178.19065 8.17632,-1.00752 10.02396,-1.4502 15.78052,-2.14834 54.89711,-74.63003 64.61423,-103.59119 65.11407,-157.30413 1.15495,-124.11039 3.74763,-288.56795 3.74763,-288.56795 z" />
    <path
       d="m 244.81787,580.28344 c 0,0 24.39101,37.40084 18.73818,74.9527 49.04509,-66.07611 85.11628,-81.18439 85.11628,-81.18439 l -1.37725,-9.58206 z" />
    <path
       d="m 360.05765,475.34967 c -48.63753,126.93179 36.53943,158.02529 36.53943,158.02529 0,0 -13.21696,-36.39487 6.2461,-69.95588 -13.52092,-6.36137 -28.03492,-16.78567 -42.78553,-88.06941 z" />
    <path
       d="m 391.28795,125.88266 c 0,0 16.73996,386.09737 26.67521,470.89808 6.13536,62.52284 21.62414,92.47474 -36.66891,75.00746 101.88069,112.29196 251.71617,58.08835 251.71617,58.08835 0,0 -184.68632,9.00744 -198.00006,-261.70987 -5.53104,-112.46652 -18.73817,-337.28719 -18.73817,-337.28719 z" />
  </g>
</svg>
